HIERARCHY
ROOT hip
{
	OFFSET 0.000000 0.000000 0.000000 
	CHANNELS 6 Xposition Yposition Zposition Xrotation Zrotation Yrotation
	JOINT abdomen
	{
		OFFSET 0.000000 3.402643 0.000000 
		CHANNELS 3 Xrotation Zrotation Yrotation
		JOINT chest
		{
			OFFSET 0.000000 8.438565 -0.680529 
			CHANNELS 3 Xrotation Zrotation Yrotation
			JOINT neck
			{
				OFFSET 0.000000 10.207942 -0.272212 
				CHANNELS 3 Xrotation Zrotation Yrotation
				JOINT head
				{
					OFFSET 0.000000 3.130431 0.000000 
					CHANNELS 3 Xrotation Zrotation Yrotation
					End Site
					{
						OFFSET 0.000000 3.130435 0.000000 
					}
				}
			}
			JOINT lCollar
			{
				OFFSET 3.470700 6.669187 -0.816635 
				CHANNELS 3 Yrotation Zrotation Xrotation
				JOINT lShldr
				{
					OFFSET 3.198488 0.000000 0.000000 
					CHANNELS 3 Zrotation Yrotation Xrotation
					JOINT lForeArm
					{
						OFFSET 10.139888 0.000000 0.000000 
						CHANNELS 3 Yrotation Zrotation Xrotation
						JOINT lHand
						{
							OFFSET 8.370511 0.000000 0.000000 
							CHANNELS 3 Zrotation Yrotation Xrotation
							End Site
							{
								OFFSET 4.083176 0.000000 0.000000 
							}
						}
					}
				}
			}
			JOINT rCollar
			{
				OFFSET -3.470700 6.669187 -0.816635 
				CHANNELS 3 Yrotation Zrotation Xrotation
				JOINT rShldr
				{
					OFFSET -3.198488 0.000000 0.000000 
					CHANNELS 3 Zrotation Yrotation Xrotation
					JOINT rForeArm
					{
						OFFSET -10.139888 0.000000 0.000000 
						CHANNELS 3 Yrotation Zrotation Xrotation
						JOINT rHand
						{
							OFFSET -8.370511 0.000000 0.000000 
							CHANNELS 3 Zrotation Yrotation Xrotation
							End Site
							{
								OFFSET -4.083176 0.000000 0.000000 
							}
						}
					}
				}
			}
		}
	}
	JOINT lThigh
	{
		OFFSET 5.308129 -1.633274 1.361059 
		CHANNELS 3 Xrotation Zrotation Yrotation
		JOINT lShin
		{
			OFFSET -2.041588 -20.007561 0.000000 
			CHANNELS 3 Xrotation Zrotation Yrotation
			JOINT lFoot
			{
				OFFSET 0.000000 -19.190928 -1.224953 
				CHANNELS 3 Xrotation Yrotation Zrotation
				End Site
				{
					OFFSET 0.000000 -2.449906 4.627600 
				}
			}
		}
	}
	JOINT rThigh
	{
		OFFSET -5.308129 -1.633274 1.361059 
		CHANNELS 3 Xrotation Zrotation Yrotation
		JOINT rShin
		{
			OFFSET 2.041588 -20.007561 0.000000 
			CHANNELS 3 Xrotation Zrotation Yrotation
			JOINT rFoot
			{
				OFFSET 0.000000 -19.190928 -1.224953 
				CHANNELS 3 Xrotation Yrotation Zrotation
				End Site
				{
					OFFSET 0.000000 -2.449906 4.627600 
				}
			}
		}
	}
}
MOTION
Frames: 9
Frame Time: 0.016667
33.969955 19.784224 -6.879942 -24.826300 -6.458190 -17.285200 -4.727000 -0.787216 0.121650 18.613100 0.673441 -0.052147 -23.443100 2.470700 -3.911570 -0.537705 7.135250 -0.790746 2.000000 -2.000000 0.000000 143.886002 -93.883797 -12.660800 117.959000 -0.146170 0.139186 0.046819 0.016640 -127.448997 -2.000000 2.000000 0.000000 -132.216003 99.685699 -8.556490 -125.654999 0.140847 0.093400 -0.059667 -0.031020 -122.195000 -66.090584 15.928337 8.310488 132.144623 -6.225718 3.953186 -22.623680 -4.653724 -9.901089 -69.237778 -21.189093 -2.660134 135.086136 5.898478 -3.710112 -3.839777 -1.828815 13.653767 
33.979729 19.783325 -6.892816 -24.791201 -6.540010 -17.253000 -4.707450 -0.774077 0.129717 18.652201 0.614895 -0.039975 -23.388901 2.502320 -4.019250 -0.538091 7.183920 -0.833665 2.000000 -2.000000 0.000000 143.516006 -93.914299 -12.162700 117.880997 -0.146346 0.139280 0.046874 0.016963 -127.332001 -2.000000 2.000000 0.000000 -131.811005 99.754799 -8.273310 -125.741997 0.140689 0.093286 -0.059878 -0.031813 -121.902000 -66.181999 15.962624 8.223135 132.092819 -6.210603 3.970113 -22.018156 -4.469791 -9.839032 -69.313416 -21.060753 -2.698999 134.931091 5.873697 -3.719863 -2.761786 -2.107934 13.773859 
33.980850 19.783211 -6.902589 -24.766001 -6.621360 -17.238199 -4.678120 -0.757519 0.146801 18.681499 0.585624 -0.028937 -22.808300 2.592920 -4.095820 -0.272628 7.224890 -0.851195 2.000000 -2.000000 0.000000 143.811005 -93.894302 -12.367800 117.792999 -0.146545 0.139385 0.046783 0.016424 -127.527000 -2.000000 2.000000 0.000000 -132.341995 99.665398 -8.898250 -125.635002 0.140882 0.093425 -0.060092 -0.032605 -121.609001 -66.307861 16.016973 8.039584 132.027832 -6.186296 3.958278 -21.016226 -4.190715 -9.758925 -69.282364 -21.011801 -2.818805 134.889816 5.868073 -3.716151 -2.788635 -1.985134 13.718522 
33.968834 19.779167 -6.899230 -24.827900 -6.298150 -17.202299 -4.668400 -0.793588 0.130763 18.720600 0.732046 -0.052761 -22.631901 2.553980 -4.218350 -0.213567 7.225310 -0.921951 2.000000 -2.000000 0.000000 143.186996 -93.846603 -11.850200 117.792999 -0.146545 0.139385 0.046878 0.016990 -127.321999 -2.000000 2.000000 0.000000 -132.968994 99.673897 -9.435240 -125.517998 0.141094 0.093576 -0.059992 -0.032236 -121.746002 -66.303764 15.626103 8.245075 131.935837 -6.175011 3.975462 -20.716627 -3.948719 -9.702168 -69.412880 -21.380587 -2.567903 135.021973 5.880822 -3.715789 -3.321785 -1.491603 13.565079 
33.961643 19.773438 -6.893377 -24.794500 -6.415390 -17.270901 -4.639110 -0.790747 0.111267 18.769400 0.712544 -0.061294 -22.603800 2.706620 -4.308160 -0.184676 7.313180 -0.934424 2.000000 -2.000000 0.000000 145.326004 -93.792999 -13.910600 117.774002 -0.146589 0.139408 0.046860 0.016882 -127.361000 -2.000000 2.000000 0.000000 -132.826004 99.606102 -9.191070 -125.488998 0.141146 0.093613 -0.059970 -0.032157 -121.775002 -66.272415 15.856924 8.228103 132.031570 -6.205783 3.978138 -21.073835 -4.085917 -9.766251 -69.344994 -21.172699 -2.662088 135.074539 5.897203 -3.697498 -3.592892 -1.619101 13.606075 
33.957825 19.780851 -6.891265 -24.840401 -6.350830 -17.264700 -4.648890 -0.801023 0.083973 18.749800 0.751579 -0.082300 -22.633699 2.803170 -4.372060 -0.185181 7.381360 -0.939396 2.000000 -2.000000 0.000000 146.016998 -93.830399 -14.652800 117.822998 -0.146479 0.139350 0.046887 0.017044 -127.303001 -2.000000 2.000000 0.000000 -132.253006 99.549004 -8.566070 -125.625000 0.140900 0.093437 -0.060172 -0.032895 -121.501999 -66.185760 15.799188 8.308434 132.022018 -6.207182 3.978323 -21.329140 -4.086545 -9.786674 -69.272438 -21.280687 -2.633379 135.139603 5.914233 -3.708750 -3.957408 -1.693207 13.649876 
33.954567 19.786245 -6.881537 -24.755699 -6.426270 -17.339600 -4.668380 -0.762067 0.081070 18.720501 0.780849 -0.083622 -22.624800 2.751450 -4.319300 -0.185181 7.381360 -0.919865 2.000000 -2.000000 0.000000 145.557999 -93.919296 -14.203700 117.822998 -0.146479 0.139350 0.046887 0.017044 -127.303001 -2.000000 2.000000 0.000000 -131.906998 99.511101 -8.087470 -125.615997 0.140918 0.093450 -0.060143 -0.032790 -121.541000 -66.213730 16.007139 8.231880 132.052231 -6.206819 3.967394 -21.449585 -4.043130 -9.813964 -69.301544 -21.129972 -2.666286 135.222916 5.926274 -3.719226 -4.610203 -1.928590 13.708490 
33.951981 19.797476 -6.875730 -24.572500 -6.497970 -17.389601 -4.697650 -0.735711 0.098152 18.730301 0.761332 -0.073101 -22.725901 2.457690 -4.220140 -0.233398 7.244650 -0.925844 2.000000 -2.000000 0.000000 145.365997 -93.871002 -13.969300 117.764000 -0.146611 0.139420 0.046883 0.017017 -127.311996 -2.000000 2.000000 0.000000 -132.332993 99.451599 -8.458550 -125.567001 0.141006 0.093513 -0.060013 -0.032315 -121.717003 -66.390678 16.150253 8.085402 132.105469 -6.228858 3.969712 -21.716677 -3.862405 -9.846514 -69.453331 -20.899036 -2.670729 135.244431 5.936163 -3.716380 -5.048015 -2.060293 13.729002 
33.948277 19.798716 -6.870753 -24.531799 -6.473330 -17.415899 -4.736710 -0.729366 0.088712 18.671700 0.780827 -0.074522 -22.805201 2.358470 -4.138030 -0.292097 7.195530 -0.900294 2.000000 -2.000000 0.000000 145.238998 -93.851700 -13.871600 117.617996 -0.146943 0.139594 0.046919 0.017233 -127.234001 -2.000000 2.000000 0.000000 -132.287003 99.490601 -8.478050 -125.606003 0.140935 0.093462 -0.059970 -0.032157 -121.775002 -66.392632 16.086630 8.084532 132.136688 -6.233456 3.955307 -22.074060 -3.812027 -9.875889 -69.501472 -20.880825 -2.639994 135.235580 5.939437 -3.719815 -5.029803 -1.985692 13.706826 
